<svg xmlns="http://www.w3.org/2000/svg" width="161" height="92" viewBox="0 0 161 92" fill="none" style="height: 50px; width: 100%; min-width: 50px;"><path d="M31.843 40.152a2.219 2.219 0 0 1 0-4.437h1.682a2.218 2.218 0 0 1 0 4.437h-1.683ZM29.797 57V41.805h5.771V57h-5.771Zm21.99-15.543c2.378 0 4.176.648 5.394 1.943s1.827 3.17 1.827 5.626V57h-5.771v-6.206c0-1.508-.29-2.649-.87-3.422-.56-.773-1.508-1.16-2.842-1.16-1.489 0-2.63.444-3.422 1.334-.773.89-1.16 2.098-1.16 3.625V57h-5.771V41.805h5.365v3.335c1.45-2.456 3.867-3.683 7.25-3.683Zm24.257.348h6.177L75.377 57H66.88l-6.728-15.196h6.322L71.2 53.84l4.843-12.035Zm9.939 13.455c-1.972-1.41-2.958-3.363-2.958-5.857s.986-4.437 2.958-5.83c1.972-1.41 4.611-2.116 7.917-2.116s5.945.706 7.917 2.117c1.972 1.392 2.958 3.335 2.958 5.829 0 2.494-.986 4.447-2.958 5.858-1.972 1.392-4.61 2.088-7.917 2.088-3.306 0-5.945-.696-7.917-2.088Zm4.118-8.41c-.908.697-1.363 1.547-1.363 2.553 0 1.005.455 1.856 1.363 2.552.909.696 2.175 1.044 3.8 1.044 1.623 0 2.89-.348 3.798-1.044.909-.696 1.363-1.547 1.363-2.552 0-1.005-.454-1.856-1.363-2.552-.908-.696-2.175-1.044-3.799-1.044s-2.89.348-3.799 1.044Zm19.679-6.698a2.218 2.218 0 0 1 0-4.437h1.682a2.219 2.219 0 0 1 0 4.437h-1.682ZM107.736 57V41.805h5.771V57h-5.771Zm29.529-5.741c-.31 1.914-1.383 3.412-3.219 4.495-1.837 1.063-4.138 1.595-6.902 1.595-3.326 0-5.936-.686-7.83-2.06-1.895-1.391-2.842-3.354-2.842-5.886 0-2.533.937-4.486 2.813-5.858 1.894-1.392 4.466-2.088 7.714-2.088 2.687 0 4.949.522 6.786 1.566 1.836 1.044 2.9 2.494 3.19 4.35l-5.597.319c-.329-.58-.88-1.035-1.653-1.363-.774-.348-1.682-.522-2.726-.522-1.47 0-2.639.328-3.509.986-.87.657-1.305 1.527-1.305 2.61s.444 1.953 1.334 2.61c.889.657 2.097.986 3.625.986 1.16 0 2.117-.184 2.871-.551.773-.367 1.314-.86 1.624-1.48l5.626.29Zm23.375-.696v.55h-15.341c.658 1.567 2.407 2.35 5.249 2.35 1.914 0 3.297-.339 4.147-1.015l5.684.232c-.58 1.508-1.711 2.668-3.393 3.48-1.662.793-3.808 1.189-6.438 1.189-3.46 0-6.196-.648-8.207-1.943-1.991-1.315-2.987-3.316-2.987-6.003 0-2.668.977-4.66 2.929-5.974 1.972-1.315 4.64-1.972 8.004-1.972 3.442 0 6.023.725 7.743 2.175 1.74 1.45 2.61 3.76 2.61 6.93Zm-10.353-5.22c-2.706 0-4.369.783-4.988 2.349h9.657c-.29-1.566-1.846-2.35-4.669-2.35Z" fill="#666CFF"></path><path fill-rule="evenodd" clip-rule="evenodd" d="M32.77 14.68A34 34 0 0 1 76.512 31h12.974A46 46 0 1 0 46 92V80a34 34 0 0 1-13.23-65.32Z" fill="#666CFF"></path></svg>